<?xml version="1.0" encoding="UTF-8" standalone="no"?>
<svg
   xmlns:dc="http://purl.org/dc/elements/1.1/"
   xmlns:cc="http://creativecommons.org/ns#"
   xmlns:rdf="http://www.w3.org/1999/02/22-rdf-syntax-ns#"
   xmlns:svg="http://www.w3.org/2000/svg"
   xmlns="http://www.w3.org/2000/svg"
   version="1.1"
   id="svg2"
   xml:space="preserve"
   width="300"
   height="75"
   viewBox="0 0 300 75"><metadata
     id="metadata8"><rdf:RDF><cc:Work
         rdf:about=""><dc:format>image/svg+xml</dc:format><dc:type
           rdf:resource="http://purl.org/dc/dcmitype/StillImage" /><dc:title></dc:title></cc:Work></rdf:RDF></metadata><defs
     id="defs6" /><g
     id="g104"><path
       id="path14"
       style="fill:#663399;fill-opacity:1;fill-rule:nonzero;stroke:none;stroke-width:1.33333325"
       d="M 0,2.4480018 V 73.76 H 72.505332 V 2.4480018 H 60.655998 V 61.254667 H 43.109332 V 2.4480018 H 30.327999 V 61.254667 H 12.786666 V 2.4480018 Z" /><path
       id="path16"
       style="fill:#663399;fill-opacity:1;fill-rule:nonzero;stroke:none;stroke-width:1.33333325"
       d="M 83.806665,73.76 H 96.218664 V 49.036001 L 113.85466,73.76 h 15.396 L 109.09333,46.745334 127.104,20.874668 H 112.73466 L 96.218664,45.792001 V 20.874668 H 83.806665 Z" /><path
       id="path20"
       style="fill:#663399;fill-opacity:1;fill-rule:nonzero;stroke:none;stroke-width:1.33333325"
       d="M 211.75999,20.874668 190.948,73.76 h 12.87999 L 216.70266,38.724001 229.95333,73.76 h 12.50533 l -20.808,-52.885332 z" /><path
       id="path22"
       style="fill:#663399;fill-opacity:1;fill-rule:nonzero;stroke:none;stroke-width:1.33333325"
       d="m 299.99999,20.874668 h -11.38533 v 7.062667 c -4.292,-5.822667 -9.42133,-8.301334 -16.89067,-8.301334 -15.30266,0 -26.312,11.738667 -26.312,27.874666 0,15.937333 10.916,27.489333 26.036,27.489333 7.276,0 12.224,-2.385333 17.16667,-8.114666 V 73.76 h 11.38533 z m -26.78133,42.479999 c -9.052,0 -15.30133,-6.302667 -15.30133,-15.557333 0,-9.646666 6.24933,-16.516 15.11333,-16.516 8.86533,0 15.21467,6.776 15.21467,16.416 0,9.166666 -5.97467,15.657333 -15.02667,15.657333 z" /><path
       id="path26"
       style="fill:#ffcc00;fill-opacity:1;fill-rule:nonzero;stroke:none;stroke-width:1.33333325"
       d="m 89.645331,4.7186684 c 1.922667,0 3.490667,1.292 3.98,3.0839999 h -6.198667 v 2.2599997 h 6.229334 c -0.453334,1.874667 -2.12,3.286667 -4.057334,3.286667 -1.197333,0 -2.072,-0.412 -3.082666,-1.494667 h -2.709333 c 0.974666,2.322667 3.198666,3.770667 5.739999,3.770667 3.636,0 6.552,-2.964 6.552,-6.6306667 0,-3.6039999 -2.88,-6.5466665 -6.401333,-6.5466665 -1.514667,0 -2.978667,0.516 -4.124,1.464 -0.844,0.7026666 -1.281333,1.3066666 -1.766666,2.4106666 h 2.573333 c 0.844,-1.12 1.817333,-1.604 3.265333,-1.604 z" /><path
       id="path28"
       style="fill:#ffcc00;fill-opacity:1;fill-rule:nonzero;stroke:none;stroke-width:1.33333325"
       d="M 104.10933,2.6720018 H 102.224 L 97.411998,15.401335 h 2.270666 l 3.505336,-9.6826666 3.68666,9.6826666 h 2.08934 z" /><path
       id="path30"
       style="fill:#ffcc00;fill-opacity:1;fill-rule:nonzero;stroke:none;stroke-width:1.33333325"
       d="m 110.912,15.401335 h 7.864 v -2.256 h -5.55734 V 10.182668 H 118.588 V 7.921335 h -5.36934 V 4.9266684 H 118.776 V 2.6720018 h -7.864 z" /><path
       id="path32"
       style="fill:#ffcc00;fill-opacity:1;fill-rule:nonzero;stroke:none;stroke-width:1.33333325"
       d="m 121.54133,15.401335 h 2.308 V 9.8026683 l 3.85867,5.5986667 h 2.64133 l -4.54667,-6.48 4.54667,-6.2493332 H 127.708 l -3.85867,5.4946665 V 2.6720018 h -2.308 z" /><path
       id="path34"
       style="fill:#ffcc00;fill-opacity:1;fill-rule:nonzero;stroke:none;stroke-width:1.33333325"
       d="m 134.56266,15.401335 h 2.30667 V 4.9266684 H 140.016 V 2.6720018 h -8.604 v 2.2546666 h 3.15066 z" /><path
       id="path36"
       style="fill:#ffcc00;fill-opacity:1;fill-rule:nonzero;stroke:none;stroke-width:1.33333325"
       d="m 141.89066,15.401335 h 2.30667 v -4.838667 h 0.74 c 1.76533,0 2.57867,-0.141333 3.26533,-0.573333 1.01067,-0.6346667 1.636,-1.9266667 1.636,-3.3906666 0,-1.4626667 -0.60933,-2.672 -1.688,-3.3439999 -0.70266,-0.432 -1.53066,-0.5826667 -3.18133,-0.5826667 h -3.07867 z m 2.30667,-7.0986667 V 4.9266684 h 0.772 c 0.76,0 1.09333,0.037333 1.468,0.12 0.672,0.188 1.07867,0.792 1.07867,1.584 0,0.62 -0.27067,1.1039999 -0.76134,1.3799999 -0.35333,0.1866667 -0.99466,0.292 -1.88533,0.292 z" /><path
       id="path38"
       style="fill:#ffcc00;fill-opacity:1;fill-rule:nonzero;stroke:none;stroke-width:1.33333325"
       d="m 158.32266,2.4480018 c -3.708,0 -6.568,2.8746666 -6.568,6.5933332 0,3.672 2.896,6.584 6.548,6.584 3.624,0 6.416,-2.876 6.416,-6.5986667 0,-3.6359999 -2.844,-6.5786665 -6.396,-6.5786665 z m -0.036,2.2706666 c 2.30667,0 4.10934,1.896 4.10934,4.3439999 0,2.4426667 -1.75067,4.2866667 -4.10934,4.2866667 -2.35466,0 -4.208,-1.890667 -4.208,-4.308 0,-2.4626666 1.81734,-4.3226666 4.208,-4.3226666 z" /><path
       id="path40"
       style="fill:#ffcc00;fill-opacity:1;fill-rule:nonzero;stroke:none;stroke-width:1.33333325"
       d="m 167.23466,15.401335 h 2.30667 v -5.338667 h 4.44267 v 5.338667 h 2.308 V 2.6720018 h -2.308 v 5.1306665 h -4.44267 V 2.6720018 h -2.30667 z" /><path
       id="path42"
       style="fill:#ffcc00;fill-opacity:1;fill-rule:nonzero;stroke:none;stroke-width:1.33333325"
       d="m 179.28133,15.401335 h 2.30667 v -5.338667 h 4.44266 v 5.338667 h 2.308 V 2.6720018 h -2.308 V 7.8026683 H 181.588 V 2.6720018 h -2.30667 z" /><path
       id="path44"
       style="fill:#ffcc00;fill-opacity:1;fill-rule:nonzero;stroke:none;stroke-width:1.33333325"
       d="m 195.484,15.401335 c 3.64133,0 5.47466,-1.636 5.47466,-4.688 0,-3.0986666 -2.24,-4.5306666 -5.47466,-4.5306666 h -1.848 V 2.6720018 h -2.308 V 15.401335 Z m -1.848,-2.256 V 8.4426683 h 2 c 1.468,0 3.03066,0.8746667 3.03066,2.2706667 0,1.552 -1.56266,2.432 -3.07866,2.432 z m 8.45199,2.256 h 2.308 V 2.6720018 h -2.308 z" /><path
       id="path46"
       style="fill:#ffcc00;fill-opacity:1;fill-rule:nonzero;stroke:none;stroke-width:1.33333325"
       d="m 212.20266,0.74000186 c -0.55733,0 -0.94267,-0.24 -1.14533,-0.739999985 h -1.65067 c 0.104,1.515999925 1.12933,2.395999925 2.796,2.395999925 1.6,0 2.71467,-0.964 2.76133,-2.395999925 h -1.71866 c -0.084,0.483999985 -0.45334,0.739999985 -1.04267,0.739999985 z M 217.47333,15.401335 V 2.6720018 h -2.624 l -5.156,9.2653332 V 2.6720018 h -2.308 V 15.401335 h 2.57866 l 5.20267,-9.2506666 v 9.2506666 z" /><path
       id="path48"
       style="fill:#ffcc00;fill-opacity:1;fill-rule:nonzero;stroke:none;stroke-width:1.33333325"
       d="m 231.46399,15.401335 h 2.30667 V 9.8026683 l 3.86,5.5986667 h 2.64 l -4.54667,-6.48 4.54667,-6.2493332 h -2.64 l -3.86,5.4946665 V 2.6720018 h -2.30667 v 5.4946665 l -3.85466,-5.4946665 h -2.64534 l 4.54667,6.2493332 -4.54667,6.48 h 2.64534 l 3.85466,-5.5986667 z" /><path
       id="path50"
       style="fill:#ffcc00;fill-opacity:1;fill-rule:nonzero;stroke:none;stroke-width:1.33333325"
       d="m 243.28666,15.401335 h 2.59333 l 5.95867,-12.7293332 h -2.48933 l -2.74534,5.8546665 -2.76,-5.8546665 h -2.412 l 4.01067,8.0253332 z" /><path
       id="path52"
       style="fill:#ffcc00;fill-opacity:1;fill-rule:nonzero;stroke:none;stroke-width:1.33333325"
       d="m 253.79733,15.401335 h 2.30666 v -4.838667 h 0.74534 c 1.76533,0 2.572,-0.141333 3.26533,-0.573333 1.01067,-0.6346667 1.63467,-1.9266667 1.63467,-3.3906666 0,-1.4626667 -0.60934,-2.672 -1.68667,-3.3439999 -0.708,-0.432 -1.532,-0.5826667 -3.18267,-0.5826667 h -3.08266 z m 2.30666,-7.0986667 V 4.9266684 h 0.776 c 0.76,0 1.09334,0.037333 1.464,0.12 0.67734,0.188 1.07734,0.792 1.07734,1.584 0,0.62 -0.26534,1.1039999 -0.75467,1.3799999 -0.35467,0.1866667 -0.99467,0.292 -1.88533,0.292 z" /><path
       id="path54"
       style="fill:#ffcc00;fill-opacity:1;fill-rule:nonzero;stroke:none;stroke-width:1.33333325"
       d="m 264.13599,15.401335 h 2.30667 v -5.338667 h 4.448 v 5.338667 h 2.30667 V 2.6720018 h -2.30667 v 5.1306665 h -4.448 V 2.6720018 h -2.30667 z" /><path
       id="path56"
       style="fill:#ffcc00;fill-opacity:1;fill-rule:nonzero;stroke:none;stroke-width:1.33333325"
       d="m 275.15599,15.401335 h 2.54134 l 1.38133,-3.292 h 4.432 l 1.328,3.292 h 2.54133 L 282.16133,2.6720018 h -1.81734 z m 4.76534,-5.5466667 1.32933,-3.8599999 1.33333,3.8599999 z" /><path
       id="path58"
       style="fill:#ffcc00;fill-opacity:1;fill-rule:nonzero;stroke:none;stroke-width:1.33333325"
       d="m 295.02666,2.6720018 h -1.89067 l -4.81333,12.7293332 h 2.27067 l 3.50533,-9.6826666 3.688,9.6826666 h 2.088 z" /><path
       d="m 188.27958,20.874668 h -11.38533 v 7.062667 c -4.292,-5.822667 -9.42133,-8.301334 -16.89067,-8.301334 -15.30266,0 -26.312,11.738667 -26.312,27.874666 0,15.937333 10.916,27.489333 26.036,27.489333 7.276,0 12.224,-2.385333 17.16667,-8.114666 V 73.76 h 11.38533 z m -26.78133,42.479999 c -9.052,0 -15.30133,-6.302667 -15.30133,-15.557333 0,-9.646666 6.24933,-16.516 15.11333,-16.516 8.86533,0 15.21467,6.776 15.21467,16.416 0,9.166666 -5.97467,15.657333 -15.02667,15.657333 z"
       style="fill:#663399;fill-opacity:1;fill-rule:nonzero;stroke:none;stroke-width:1.33333325"
       id="path79" /><path
       id="path24"
       style="fill:#ffcc00;fill-opacity:1;fill-rule:nonzero;stroke:none;stroke-width:1.33333325"
       d="m 176.89088,20.853336 h 11.43734 l 0,52.94422 h -11.43734 z" /></g></svg>
