<?xml version="1.0" encoding="UTF-8" standalone="no"?>
<svg
   xmlns:dc="http://purl.org/dc/elements/1.1/"
   xmlns:cc="http://creativecommons.org/ns#"
   xmlns:rdf="http://www.w3.org/1999/02/22-rdf-syntax-ns#"
   xmlns:svg="http://www.w3.org/2000/svg"
   xmlns="http://www.w3.org/2000/svg"
   version="1.1"
   id="Capa_1"
   x="0px"
   y="0px"
   viewBox="0 0 40 40"
   xml:space="preserve"
   width="40"
   height="40"><metadata
   id="metadata38"><rdf:RDF><cc:Work
       rdf:about=""><dc:format>image/svg+xml</dc:format><dc:type
         rdf:resource="http://purl.org/dc/dcmitype/StillImage" /><dc:title></dc:title></cc:Work></rdf:RDF></metadata><defs
   id="defs36" />

<g
   id="g3"
   transform="translate(1168.5094,-539.42716)">
</g>
<g
   id="g5"
   transform="translate(1168.5094,-539.42716)">
</g>
<g
   id="g7"
   transform="translate(1168.5094,-539.42716)">
</g>
<g
   id="g9"
   transform="translate(1168.5094,-539.42716)">
</g>
<g
   id="g11"
   transform="translate(1168.5094,-539.42716)">
</g>
<g
   id="g13"
   transform="translate(1168.5094,-539.42716)">
</g>
<g
   id="g15"
   transform="translate(1168.5094,-539.42716)">
</g>
<g
   id="g17"
   transform="translate(1168.5094,-539.42716)">
</g>
<g
   id="g19"
   transform="translate(1168.5094,-539.42716)">
</g>
<g
   id="g21"
   transform="translate(1168.5094,-539.42716)">
</g>
<g
   id="g23"
   transform="translate(1168.5094,-539.42716)">
</g>
<g
   id="g25"
   transform="translate(1168.5094,-539.42716)">
</g>
<g
   id="g27"
   transform="translate(1168.5094,-539.42716)">
</g>
<g
   id="g29"
   transform="translate(1168.5094,-539.42716)">
</g>
<g
   id="g31"
   transform="translate(1168.5094,-539.42716)">
</g>
<path
   id="XMLID_735_"
   d="M 29.997244,13.334109 H 29.23406 V 9.0072237 c 0,-1.24492 -1.009202,-2.2541222 -2.254554,-2.2541222 H 13.020601 c -1.245406,0 -2.254607,1.0092022 -2.254607,2.2541222 V 13.334109 H 10.00287 c -1.7154982,0 -3.1114721,1.340696 -3.1114721,2.988402 v 13.936094 c 0,1.648029 1.3959739,2.988294 3.1114721,2.988294 h 19.994374 c 1.715386,0 3.111356,-1.340265 3.111356,-2.988294 V 16.322511 c 0,-1.647706 -1.39597,-2.988402 -3.111356,-2.988402 z M 14.673808,9.8126333 h 5.299848 c 0.482599,0 0.874113,0.3915687 0.874113,0.8745987 0,0.482545 -0.391568,0.87406 -0.874113,0.87406 h -5.299848 c -0.483031,0 -0.874599,-0.391515 -0.874599,-0.87406 0,-0.48303 0.391568,-0.8745987 0.874599,-0.8745987 z m 0,3.4969387 h 10.65411 c 0.48303,0 0.874545,0.391569 0.874545,0.874545 0,0.4826 -0.391515,0.87406 -0.874545,0.87406 h -10.65411 c -0.483031,0 -0.874599,-0.39146 -0.874599,-0.87406 0,-0.48303 0.391568,-0.874545 0.874599,-0.874545 z m 0,3.496886 h 10.65411 c 0.48303,0 0.874545,0.391461 0.874545,0.874491 0,0.482544 -0.391515,0.874167 -0.874545,0.874167 h -10.65411 c -0.483031,0 -0.874599,-0.391569 -0.874599,-0.874167 0,-0.48303 0.391568,-0.874491 0.874599,-0.874491 z m 15.796921,13.452578 c 0,0.186428 -0.221912,0.350099 -0.473485,0.350099 H 10.00287 c -0.2517406,0 -0.4736002,-0.163617 -0.4736002,-0.35053 V 18.165273 l 9.0428062,7.634701 c 0.185673,0.156282 0.420905,0.242135 0.663904,0.242135 l 1.527231,4.24e-4 c 0.243052,0 0.479039,-0.08628 0.664712,-0.24262 l 9.042806,-7.634647 z"
   style="fill:#ffffff;stroke:none;stroke-width:0.05392766" />
</svg>